<svg width="1000" height="1000" viewBox="0 0 1000 1000" fill="none" xmlns="http://www.w3.org/2000/svg">
<path opacity="0.64" d="M494.098 781.609C623.94 781.609 729.198 760.432 729.198 734.309C729.198 708.186 623.94 687.009 494.098 687.009C364.256 687.009 258.998 708.186 258.998 734.309C258.998 760.432 364.256 781.609 494.098 781.609Z" fill="#68CCE9"/>
<path opacity="0.64" d="M386.752 462.427C449.023 541.985 564.533 555.582 644.752 492.794C724.971 430.007 739.521 314.613 677.25 235.054C614.979 155.495 499.469 141.899 419.25 204.686C339.031 267.474 324.481 382.868 386.752 462.427Z" fill="white"/>
<path opacity="0.64" d="M571.833 522.576C528.847 577.57 533.698 653.181 582.667 691.458C631.636 729.735 706.181 716.182 749.167 661.188C792.153 606.194 787.303 530.583 738.333 492.306C689.364 454.029 614.819 467.582 571.833 522.576Z" fill="white"/>
<path opacity="0.64" d="M267.856 486.796C216.573 552.405 226.104 645.537 289.144 694.812C352.183 744.087 444.86 730.845 496.144 665.236C547.427 599.627 537.896 506.495 474.856 457.22C411.817 407.946 319.14 421.187 267.856 486.796Z" fill="white"/>
<path d="M381.398 726.709C384.698 716.009 394.798 710.309 411.198 705.509C421.598 702.509 434.798 701.109 455.498 696.909C465.598 694.909 472.698 690.909 472.698 690.909V702.409C472.698 702.409 404.198 715.909 393.498 733.609C388.298 742.309 389.898 763.609 414.398 765.809C406.898 766.909 394.598 765.009 387.998 758.309C379.798 750.009 377.598 738.909 381.398 726.709Z" fill="#282323" stroke="black" stroke-width="4" stroke-miterlimit="10" stroke-linecap="round" stroke-linejoin="round"/>
<path d="M472.698 702.409C472.698 702.409 431.698 710.009 409.798 719.409C390.598 727.709 391.198 736.309 390.698 745.109C390.398 750.209 393.998 762.809 408.598 765.009C425.998 767.609 446.498 764.809 472.698 748.109C472.698 707.209 472.698 702.409 472.698 702.409Z" fill="#442C2A"/>
<path opacity="0.37" d="M390.698 745.109C391.098 738.009 390.798 731.009 400.798 724.209C400.398 726.709 400.298 729.109 400.198 731.609C399.898 736.709 412.198 730.109 426.798 732.209C441.998 734.509 450.998 751.909 472.698 740.209C472.698 742.709 472.698 745.309 472.698 748.009C446.498 764.709 425.998 767.409 408.598 764.909C393.998 762.809 390.398 750.109 390.698 745.109Z" fill="#442C2A"/>
<path d="M472.698 702.409C472.698 702.409 431.698 710.009 409.798 719.409C390.598 727.709 391.198 736.309 390.698 745.109C390.398 750.209 393.998 762.809 408.598 765.009C425.998 767.609 446.498 764.809 472.698 748.109C472.698 707.209 472.698 702.409 472.698 702.409Z" stroke="black" stroke-width="4" stroke-miterlimit="10" stroke-linecap="round" stroke-linejoin="round"/>
<path d="M434.698 725.909C431.398 727.709 432.198 745.209 440.198 747.609" stroke="black" stroke-width="4" stroke-miterlimit="10" stroke-linecap="round" stroke-linejoin="round"/>
<path d="M447.198 724.609C443.798 729.409 446.198 740.709 452.298 743.509" stroke="black" stroke-width="4" stroke-miterlimit="10" stroke-linecap="round" stroke-linejoin="round"/>
<path d="M458.698 720.609C455.298 725.409 457.698 736.709 463.798 739.509" stroke="black" stroke-width="4" stroke-miterlimit="10" stroke-linecap="round" stroke-linejoin="round"/>
<path d="M576.698 668.809C555.098 683.809 524.398 692.409 492.298 692.409C460.298 692.409 429.498 683.809 407.898 668.809C397.998 661.909 381.398 647.509 381.398 628.309C381.398 609.109 397.998 594.709 407.898 587.809C429.498 572.809 460.198 564.209 492.298 564.209C524.298 564.209 555.098 572.809 576.698 587.809C586.598 594.709 603.198 609.109 603.198 628.309C603.198 647.509 586.598 661.909 576.698 668.809Z" fill="#151E28"/>
<path d="M675.598 644.309C675.198 646.309 674.798 648.209 674.198 650.209C658.598 707.109 583.398 750.309 492.898 750.309C402.198 750.309 326.798 706.909 311.498 649.809C311.098 648.209 310.698 646.609 310.398 645.009C309.998 642.009 310.098 639.009 310.698 636.009C314.398 619.209 334.798 609.509 356.298 614.309C370.398 617.409 381.398 626.109 386.298 636.409C386.798 638.609 387.598 640.809 388.498 642.909C393.698 654.909 404.098 663.909 411.098 668.909C431.998 683.909 461.898 692.509 492.898 692.509C523.998 692.509 553.798 683.909 574.698 668.909C581.798 663.809 592.298 654.709 597.398 642.709C598.198 640.809 598.898 638.709 599.398 636.709C604.198 626.309 615.298 617.609 629.498 614.409C650.998 609.609 671.398 619.409 675.098 636.109C675.798 638.709 675.898 641.509 675.598 644.309Z" fill="#2A3749"/>
<path opacity="0.67" d="M675.098 635.909C674.998 635.409 674.898 635.009 674.698 634.509C674.398 636.109 673.998 637.809 673.498 639.409C658.098 696.309 582.798 739.509 492.398 739.509C401.698 739.509 326.298 696.109 310.998 639.009C310.798 638.409 310.698 637.809 310.498 637.109C310.098 639.709 309.998 642.309 310.398 644.809C310.698 646.409 311.098 648.009 311.498 649.609C326.798 706.709 402.198 750.109 492.898 750.109C583.398 750.109 658.598 706.909 674.198 650.009C674.698 648.109 675.198 646.109 675.598 644.109C675.898 641.509 675.798 638.709 675.098 635.909Z" fill="#151E28"/>
<path d="M675.598 644.309C675.198 646.309 674.798 648.209 674.198 650.209C658.598 707.109 583.398 750.309 492.898 750.309C402.198 750.309 326.798 706.909 311.498 649.809C311.098 648.209 310.698 646.609 310.398 645.009C309.998 642.009 310.098 639.009 310.698 636.009C314.398 619.209 334.798 609.509 356.298 614.309C370.398 617.409 381.398 626.109 386.298 636.409C386.798 638.609 387.598 640.809 388.498 642.909C393.698 654.909 404.098 663.909 411.098 668.909C431.998 683.909 461.898 692.509 492.898 692.509C523.998 692.509 553.798 683.909 574.698 668.909C581.798 663.809 592.298 654.709 597.398 642.709C598.198 640.809 598.898 638.709 599.398 636.709C604.198 626.309 615.298 617.609 629.498 614.409C650.998 609.609 671.398 619.409 675.098 636.109C675.798 638.709 675.898 641.509 675.598 644.309Z" stroke="black" stroke-width="4" stroke-miterlimit="10" stroke-linecap="round" stroke-linejoin="round"/>
<path d="M494.098 661.909C543.859 661.909 584.198 648.209 584.198 631.309C584.198 614.409 543.859 600.709 494.098 600.709C444.337 600.709 403.998 614.409 403.998 631.309C403.998 648.209 444.337 661.909 494.098 661.909Z" fill="white"/>
<path d="M494.098 661.909C543.859 661.909 584.198 648.209 584.198 631.309C584.198 614.409 543.859 600.709 494.098 600.709C444.337 600.709 403.998 614.409 403.998 631.309C403.998 648.209 444.337 661.909 494.098 661.909Z" stroke="black" stroke-width="4" stroke-miterlimit="10" stroke-linecap="round" stroke-linejoin="round"/>
<path d="M596.698 564.508H389.098C373.198 564.508 360.898 550.608 362.898 534.808L372.098 461.308C374.698 440.308 392.498 424.608 413.698 424.608H572.298C593.398 424.608 611.198 440.308 613.898 461.308L623.098 534.808C624.898 550.608 612.598 564.508 596.698 564.508Z" fill="#F1534D"/>
<path d="M596.698 564.508H389.098C373.198 564.508 360.898 550.608 362.898 534.808L372.098 461.308C374.698 440.308 392.498 424.608 413.698 424.608H572.298C593.398 424.608 611.198 440.308 613.898 461.308L623.098 534.808C624.898 550.608 612.598 564.508 596.698 564.508Z" stroke="black" stroke-width="4" stroke-miterlimit="10" stroke-linecap="round" stroke-linejoin="round"/>
<path d="M411.598 486.708L409.598 511.808" stroke="black" stroke-width="4" stroke-miterlimit="10" stroke-linecap="round" stroke-linejoin="round"/>
<path d="M575.698 486.708L577.698 511.808" stroke="black" stroke-width="4" stroke-miterlimit="10" stroke-linecap="round" stroke-linejoin="round"/>
<path d="M596.698 564.508H389.098C373.198 564.508 360.898 550.608 362.898 534.808L372.098 461.308C374.698 440.308 392.498 424.608 413.698 424.608H572.298C593.398 424.608 611.198 440.308 613.898 461.308L623.098 534.808C624.898 550.608 612.598 564.508 596.698 564.508Z" fill="white"/>
<g opacity="0.24">
<path opacity="0.24" d="M371.998 469.108C374.598 448.108 392.398 432.408 413.598 432.408H572.198C593.298 432.408 611.098 448.108 613.798 469.108L622.898 542.008C623.198 539.708 623.298 537.308 622.998 534.808L613.798 461.308C611.198 440.308 593.398 424.608 572.198 424.608H413.598C392.498 424.608 374.698 440.308 371.998 461.308L362.798 534.808C362.498 537.208 362.498 539.608 362.898 542.008L371.998 469.108Z" fill="#9B2121"/>
<path opacity="0.24" d="M422.798 432.409C422.798 432.409 435.098 434.609 436.098 441.409C436.898 446.909 436.798 450.509 438.898 452.709C440.998 454.909 445.898 459.409 455.798 459.409C450.298 453.909 450.198 434.609 448.698 434.609C447.298 434.609 443.698 425.009 443.698 425.009L438.898 422.809C438.998 422.809 421.298 425.009 422.798 432.409Z" fill="#9B2121"/>
<path opacity="0.24" d="M554.198 432.409C554.198 432.409 541.898 434.609 540.898 441.409C540.098 446.909 540.198 450.509 538.098 452.709C535.998 454.809 531.098 459.409 521.198 459.409C526.698 453.909 526.798 434.609 528.298 434.609C529.698 434.609 533.298 425.009 533.298 425.009L538.098 422.809C537.998 422.809 555.698 425.009 554.198 432.409Z" fill="#9B2121"/>
</g>
<path d="M596.698 564.508H389.098C373.198 564.508 360.898 550.608 362.898 534.808L372.098 461.308C374.698 440.308 392.498 424.608 413.698 424.608H572.298C593.398 424.608 611.198 440.308 613.898 461.308L623.098 534.808C624.898 550.608 612.598 564.508 596.698 564.508Z" stroke="black" stroke-width="4" stroke-miterlimit="10" stroke-linecap="round" stroke-linejoin="round"/>
<path d="M411.598 486.709L409.598 511.809" stroke="black" stroke-width="4" stroke-miterlimit="10" stroke-linecap="round" stroke-linejoin="round"/>
<path d="M575.698 486.709L577.698 511.809" stroke="black" stroke-width="4" stroke-miterlimit="10" stroke-linecap="round" stroke-linejoin="round"/>
<path d="M466.198 382.808L433.298 381.108L417.898 382.808C417.898 382.808 407.598 390.508 407.598 392.608C407.598 394.708 408.598 411.808 408.598 411.808C408.598 411.808 432.898 415.108 435.498 417.608C438.098 420.108 453.498 434.508 453.498 434.508L468.398 428.708L476.198 407.908L466.198 382.808Z" fill="black"/>
<path d="M460.398 370.108H422.398C407.098 370.108 394.598 382.508 394.598 397.908C394.598 413.208 406.998 425.708 422.398 425.708H427.398C435.498 425.708 441.998 432.208 441.998 440.308V441.808C441.998 451.508 449.898 459.408 459.598 459.408V441.408C459.798 441.408 459.998 441.608 459.998 441.808V440.308C459.998 422.308 445.398 407.708 427.398 407.708H422.398C416.998 407.708 412.598 403.308 412.598 397.908C412.598 392.508 416.998 388.108 422.398 388.108H460.398V370.108Z" fill="white"/>
<path d="M458.098 429.009C453.498 416.609 441.498 407.609 427.498 407.609H422.498C417.098 407.609 412.698 403.209 412.698 397.809C412.698 392.409 417.098 388.009 422.498 388.009H460.498V370.009H422.498C407.198 370.009 394.698 382.409 394.698 397.809C394.698 413.109 407.098 425.609 422.498 425.609H427.498C435.598 425.609 442.098 432.109 442.098 440.209V441.709C442.098 451.409 449.998 459.309 459.698 459.309" stroke="black" stroke-width="4" stroke-miterlimit="10" stroke-linecap="round" stroke-linejoin="round"/>
<path d="M509.699 382.808L542.599 381.108L557.999 382.808C557.999 382.808 568.299 390.508 568.299 392.608C568.299 394.708 567.299 411.808 567.299 411.808C567.299 411.808 542.999 415.108 540.399 417.608C537.799 420.208 522.399 434.508 522.399 434.508L507.499 428.708L499.699 407.908L509.699 382.808Z" fill="black"/>
<path d="M515.499 370.108H553.499C568.799 370.108 581.299 382.508 581.299 397.908C581.299 413.208 568.899 425.708 553.499 425.708H548.499C540.399 425.708 533.899 432.208 533.899 440.308V441.808C533.899 451.508 525.999 459.408 516.299 459.408V441.408C516.099 441.408 515.899 441.608 515.899 441.808V440.308C515.899 422.308 530.499 407.708 548.499 407.708H553.499C558.899 407.708 563.299 403.308 563.299 397.908C563.299 392.508 558.899 388.108 553.499 388.108H515.499V370.108Z" fill="white"/>
<path d="M517.899 429.009C522.499 416.609 534.499 407.609 548.499 407.609H553.499C558.899 407.609 563.299 403.209 563.299 397.809C563.299 392.409 558.899 388.009 553.499 388.009H515.499V370.009H553.499C568.799 370.009 581.299 382.409 581.299 397.809C581.299 413.109 568.899 425.609 553.499 425.609H548.499C540.399 425.609 533.899 432.109 533.899 440.209V441.709C533.899 451.409 525.999 459.309 516.299 459.309" stroke="black" stroke-width="4" stroke-miterlimit="10" stroke-linecap="round" stroke-linejoin="round"/>
<path d="M489.798 445.209C511.337 445.209 528.798 427.748 528.798 406.209C528.798 384.67 511.337 367.209 489.798 367.209C468.259 367.209 450.798 384.67 450.798 406.209C450.798 427.748 468.259 445.209 489.798 445.209Z" fill="black"/>
<path d="M452.498 394.708C463.298 401.608 476.098 405.708 489.798 405.708C503.498 405.708 516.298 401.708 527.098 394.708C522.198 378.708 507.398 367.108 489.798 367.108C472.298 367.208 457.398 378.808 452.498 394.708Z" fill="black"/>
<path d="M489.798 445.209C511.337 445.209 528.798 427.748 528.798 406.209C528.798 384.67 511.337 367.209 489.798 367.209C468.259 367.209 450.798 384.67 450.798 406.209C450.798 427.748 468.259 445.209 489.798 445.209Z" stroke="black" stroke-width="4" stroke-miterlimit="10" stroke-linecap="round" stroke-linejoin="round"/>
<path d="M489.798 428.809C477.098 428.809 466.798 418.509 466.798 405.809V388.609C466.798 385.409 469.398 382.809 472.598 382.809H507.098C510.298 382.809 512.898 385.409 512.898 388.609V405.809C512.798 418.509 502.498 428.809 489.798 428.809Z" fill="#FFC897"/>
<path d="M507.098 382.809H472.598C469.398 382.809 466.798 385.609 466.798 389.009V403.109C473.998 405.809 481.698 407.309 489.798 407.309C497.898 407.309 505.598 405.809 512.798 403.109V389.009C512.798 385.609 510.198 382.809 507.098 382.809Z" fill="#E5A973"/>
<path d="M489.798 428.809C477.098 428.809 466.798 418.509 466.798 405.809V388.609C466.798 385.409 469.398 382.809 472.598 382.809H507.098C510.298 382.809 512.898 385.409 512.898 388.609V405.809C512.798 418.509 502.498 428.809 489.798 428.809Z" stroke="black" stroke-width="4" stroke-miterlimit="10" stroke-linecap="round" stroke-linejoin="round"/>
<path d="M514.699 687.909H493.299V756.209H514.699V687.909Z" fill="#607691"/>
<path d="M514.699 687.909H493.299V756.209H514.699V687.909Z" stroke="black" stroke-width="4" stroke-miterlimit="10" stroke-linecap="round" stroke-linejoin="round"/>
<path d="M388.398 642.709C387.498 640.609 386.798 638.509 386.198 636.209C387.298 638.409 387.998 640.509 388.398 642.709Z" stroke="black" stroke-width="4" stroke-miterlimit="10" stroke-linecap="round" stroke-linejoin="round"/>
<path d="M597.499 642.509C597.899 640.409 598.599 638.409 599.499 636.509C598.999 638.609 598.299 640.609 597.499 642.509Z" stroke="black" stroke-width="4" stroke-miterlimit="10" stroke-linecap="round" stroke-linejoin="round"/>
<path d="M597.198 637.709H388.698C381.298 637.709 374.998 632.209 373.998 624.809L360.998 523.009C359.898 514.209 366.798 506.309 375.698 506.309H610.198C619.098 506.309 625.998 514.109 624.898 523.009L611.898 624.809C610.898 632.109 604.598 637.709 597.198 637.709Z" fill="#B5B5B5"/>
<path opacity="0.21" d="M611.798 618.409C610.898 625.809 604.598 631.309 597.098 631.309H388.698C381.298 631.309 374.998 625.809 373.998 618.409L361.198 518.109C360.898 519.709 360.798 521.309 360.998 523.009L373.998 624.809C374.898 632.209 381.198 637.709 388.698 637.709H597.198C604.598 637.709 610.898 632.209 611.898 624.809L624.898 523.009C625.098 521.309 624.998 519.709 624.698 518.109L611.798 618.409Z" fill="#7E7E7E"/>
<path opacity="0.21" d="M361.098 523.909C362.298 517.109 368.298 511.709 375.598 511.709H610.098C617.498 511.709 623.398 517.009 624.598 523.909L624.698 522.909C625.798 514.109 618.898 506.209 609.998 506.209H375.698C366.798 506.209 359.898 514.009 360.998 522.909L361.098 523.909Z" fill="#7E7E7E"/>
<path d="M597.198 637.709H388.698C381.298 637.709 374.998 632.209 373.998 624.809L360.998 523.009C359.898 514.209 366.798 506.309 375.698 506.309H610.198C619.098 506.309 625.998 514.109 624.898 523.009L611.898 624.809C610.898 632.109 604.598 637.709 597.198 637.709Z" stroke="black" stroke-width="4" stroke-miterlimit="10" stroke-linecap="round" stroke-linejoin="round"/>
<path opacity="0.66" d="M502.798 565.809C498.298 565.809 494.698 562.209 494.698 557.709C494.698 557.409 494.698 557.109 494.798 556.809C493.998 556.709 493.198 556.609 492.398 556.609C485.098 556.609 479.098 562.609 479.098 569.909C479.098 577.209 485.098 583.209 492.398 583.209C499.698 583.209 505.698 577.209 505.698 569.909C505.698 568.409 505.398 566.909 504.998 565.509C504.298 565.609 503.598 565.809 502.798 565.809Z" fill="#B5B5B5"/>
<path d="M605.999 726.709C602.699 716.009 592.599 710.309 576.199 705.509C565.799 702.509 552.599 701.109 531.899 696.909C521.799 694.909 514.699 690.909 514.699 690.909V702.409C514.699 702.409 583.199 715.909 593.899 733.609C599.099 742.309 597.499 763.609 572.999 765.809C580.499 766.909 592.799 765.009 599.399 758.309C607.599 750.009 609.799 738.909 605.999 726.709Z" fill="#282323" stroke="black" stroke-width="4" stroke-miterlimit="10" stroke-linecap="round" stroke-linejoin="round"/>
<path d="M514.699 702.409C514.699 702.409 555.699 710.009 577.599 719.409C596.799 727.709 596.199 736.309 596.699 745.109C596.999 750.209 593.399 762.809 578.799 765.009C561.399 767.609 540.899 764.809 514.699 748.109C514.699 707.209 514.699 702.409 514.699 702.409Z" fill="#442C2A"/>
<path opacity="0.37" d="M596.699 745.109C596.299 738.009 596.599 731.009 586.599 724.209C586.999 726.709 587.099 729.109 587.199 731.609C587.499 736.709 583.899 749.309 569.299 751.509C554.099 753.809 536.399 751.909 514.699 740.209C514.699 742.709 514.699 745.309 514.699 748.009C540.899 764.709 561.399 767.409 578.799 764.909C593.499 762.809 596.999 750.109 596.699 745.109Z" fill="#442C2A"/>
<path d="M514.699 702.409C514.699 702.409 555.699 710.009 577.599 719.409C596.799 727.709 596.199 736.309 596.699 745.109C596.999 750.209 593.399 762.809 578.799 765.009C561.399 767.609 540.899 764.809 514.699 748.109C514.699 707.209 514.699 702.409 514.699 702.409Z" stroke="black" stroke-width="4" stroke-miterlimit="10" stroke-linecap="round" stroke-linejoin="round"/>
<path d="M552.699 725.909C555.999 727.709 555.199 745.209 547.199 747.609" stroke="black" stroke-width="4" stroke-miterlimit="10" stroke-linecap="round" stroke-linejoin="round"/>
<path d="M540.199 724.609C543.599 729.409 541.199 740.709 535.099 743.509" stroke="black" stroke-width="4" stroke-miterlimit="10" stroke-linecap="round" stroke-linejoin="round"/>
<path d="M528.699 720.609C532.099 725.409 529.699 736.709 523.599 739.509" stroke="black" stroke-width="4" stroke-miterlimit="10" stroke-linecap="round" stroke-linejoin="round"/>
<path d="M454.698 449.209V502.409" stroke="black" stroke-width="6" stroke-miterlimit="10" stroke-linecap="round" stroke-linejoin="round"/>
<path d="M522.199 449.209V486.709" stroke="black" stroke-width="6" stroke-miterlimit="10" stroke-linecap="round" stroke-linejoin="round"/>
<path d="M522.199 498.009C526.783 498.009 530.499 494.293 530.499 489.709C530.499 485.125 526.783 481.409 522.199 481.409C517.615 481.409 513.899 485.125 513.899 489.709C513.899 494.293 517.615 498.009 522.199 498.009Z" fill="black"/>
<path d="M522.199 492.109C524.077 492.109 525.599 490.586 525.599 488.709C525.599 486.831 524.077 485.309 522.199 485.309C520.321 485.309 518.799 486.831 518.799 488.709C518.799 490.586 520.321 492.109 522.199 492.109Z" fill="#7E7E7E"/>
<path d="M489.798 399.709C454.998 399.709 426.698 371.509 426.698 336.609V263.409H552.898V336.609C552.898 371.409 524.698 399.709 489.798 399.709Z" fill="#FFC897"/>
<path d="M489.798 391.009C454.998 391.009 426.698 362.809 426.698 327.909V336.609C426.698 371.409 454.898 399.709 489.798 399.709C524.598 399.709 552.898 371.509 552.898 336.609V327.909C552.898 362.709 524.698 391.009 489.798 391.009Z" fill="#E5A973"/>
<path d="M489.798 399.709C454.998 399.709 426.698 371.509 426.698 336.609V263.409H552.898V336.609C552.898 371.409 524.698 399.709 489.798 399.709Z" stroke="black" stroke-width="4" stroke-miterlimit="10" stroke-linecap="round" stroke-linejoin="round"/>
<path d="M553.398 270.709C553.198 267.309 552.998 263.809 552.898 260.409C510.898 262.409 468.698 262.109 426.798 258.409C426.498 262.309 426.298 266.209 425.998 270.109C427.898 271.809 429.898 273.609 431.798 275.309C433.398 276.109 435.498 277.209 437.398 278.209C445.798 282.609 457.498 288.209 468.698 290.409C472.798 291.209 477.098 291.609 481.498 291.509C500.398 291.309 516.298 283.809 522.998 280.709C523.998 280.209 524.798 279.809 525.298 279.709C525.698 279.509 526.098 279.409 526.698 279.409C527.898 279.409 529.298 279.709 530.998 280.009C533.198 280.509 535.798 281.009 538.698 280.809C541.998 280.609 544.998 279.609 547.898 277.709C549.598 275.309 551.498 273.009 553.398 270.709Z" fill="#E5A973"/>
<path d="M522.998 232.709C522.998 232.709 472.498 199.409 430.698 236.609C422.898 243.509 419.798 253.409 419.798 262.509V310.709H426.798V275.709C426.798 273.109 428.598 271.109 430.798 271.109C434.398 271.109 453.898 281.509 470.398 284.409C495.298 288.709 517.998 277.209 522.898 275.509C531.298 272.509 538.098 282.909 548.698 271.209H549.098C551.298 271.209 553.098 273.309 553.098 275.809V310.809H560.098V262.809C559.898 251.009 546.298 221.409 522.998 232.709Z" fill="#231A17"/>
<g opacity="0.34">
<path opacity="0.34" d="M426.698 304.108H419.698V310.708H426.698V304.108Z" fill="#231A17"/>
<path opacity="0.34" d="M559.898 304.108H552.898V310.708H559.898V304.108Z" fill="#231A17"/>
</g>
<path d="M522.998 232.709C522.998 232.709 472.498 199.409 430.698 236.609C422.898 243.509 419.798 253.409 419.798 262.509V310.709H426.798V275.709C426.798 273.109 428.598 271.109 430.798 271.109C434.398 271.109 453.898 281.509 470.398 284.409C495.298 288.709 517.998 277.209 522.898 275.509C531.298 272.509 538.098 282.909 548.698 271.209H549.098C551.298 271.209 553.098 273.309 553.098 275.809V310.809H560.098V262.809C559.898 251.009 546.298 221.409 522.998 232.709Z" stroke="black" stroke-width="4" stroke-miterlimit="10" stroke-linecap="round" stroke-linejoin="round"/>
<path d="M480.298 265.209C480.298 265.209 426.098 268.709 414.598 239.909" stroke="black" stroke-width="4" stroke-miterlimit="10" stroke-linecap="round" stroke-linejoin="round"/>
<path d="M487.998 258.309C487.998 258.309 435.798 255.009 422.198 226.209" stroke="black" stroke-width="4" stroke-miterlimit="10" stroke-linecap="round" stroke-linejoin="round"/>
<path d="M552.898 302.909V335.709C559.898 335.709 565.498 328.409 565.498 319.309C565.498 310.209 559.898 302.909 552.898 302.909Z" fill="#FFC897"/>
<path d="M552.898 304.709V333.809C556.998 331.109 559.798 325.609 559.798 319.209C559.798 312.909 556.998 307.409 552.898 304.709Z" fill="#E5A973"/>
<path d="M552.898 302.909V335.709C559.898 335.709 565.498 328.409 565.498 319.309C565.498 310.209 559.898 302.909 552.898 302.909Z" stroke="black" stroke-width="4" stroke-miterlimit="10" stroke-linecap="round" stroke-linejoin="round"/>
<path d="M426.798 302.909V335.709C419.798 335.709 414.198 328.409 414.198 319.309C414.098 310.209 419.798 302.909 426.798 302.909Z" fill="#FFC897"/>
<path d="M426.798 305.309C423.198 308.209 420.698 313.409 420.698 319.309C420.698 325.209 423.098 330.409 426.798 333.309V305.309Z" fill="#E5A973"/>
<path d="M426.798 302.909V335.709C419.798 335.709 414.198 328.409 414.198 319.309C414.098 310.209 419.798 302.909 426.798 302.909Z" stroke="black" stroke-width="4" stroke-miterlimit="10" stroke-linecap="round" stroke-linejoin="round"/>
<path d="M487.198 329.608L482.998 343.308C482.998 344.808 487.898 343.608 492.898 344.808" stroke="black" stroke-width="4" stroke-miterlimit="10" stroke-linecap="round" stroke-linejoin="round"/>
<path d="M510.798 355.209C512.298 365.609 498.898 374.809 488.398 372.909" stroke="black" stroke-width="3" stroke-miterlimit="10" stroke-linecap="round" stroke-linejoin="round"/>
<path d="M467.098 318.009C469.418 318.009 471.298 315.994 471.298 313.509C471.298 311.024 469.418 309.009 467.098 309.009C464.778 309.009 462.898 311.024 462.898 313.509C462.898 315.994 464.778 318.009 467.098 318.009Z" stroke="black" stroke-width="2" stroke-miterlimit="10" stroke-linecap="round" stroke-linejoin="round"/>
<path d="M467.098 318.009C469.418 318.009 471.298 315.994 471.298 313.509C471.298 311.024 469.418 309.009 467.098 309.009C464.778 309.009 462.898 311.024 462.898 313.509C462.898 315.994 464.778 318.009 467.098 318.009Z" fill="black"/>
<path d="M452.598 304.009C454.698 301.509 459.598 299.809 465.398 299.809C469.998 299.809 473.998 300.909 476.498 302.609" stroke="black" stroke-width="3" stroke-miterlimit="10" stroke-linecap="round" stroke-linejoin="round"/>
<path d="M513.098 318.009C515.418 318.009 517.298 315.994 517.298 313.509C517.298 311.024 515.418 309.009 513.098 309.009C510.778 309.009 508.898 311.024 508.898 313.509C508.898 315.994 510.778 318.009 513.098 318.009Z" stroke="black" stroke-width="2" stroke-miterlimit="10" stroke-linecap="round" stroke-linejoin="round"/>
<path d="M513.098 318.009C515.418 318.009 517.298 315.994 517.298 313.509C517.298 311.024 515.418 309.009 513.098 309.009C510.778 309.009 508.898 311.024 508.898 313.509C508.898 315.994 510.778 318.009 513.098 318.009Z" fill="black"/>
<path d="M527.598 304.009C525.498 301.509 520.598 299.809 514.798 299.809C510.198 299.809 506.198 300.909 503.698 302.609" stroke="black" stroke-width="3" stroke-miterlimit="10" stroke-linecap="round" stroke-linejoin="round"/>
</svg>
