<svg width="200" height="200" viewBox="0 0 200 200" fill="none" xmlns="http://www.w3.org/2000/svg">
<g clip-path="url(#clip0_3_2)">
<path d="M100 -0.000167847C44.8608 -0.000167847 0 44.8607 0 99.9998C0 147.819 32.9142 189.835 78.2633 199.902C79.4922 200.175 80.7861 199.874 81.7749 199.084C82.7596 198.291 83.3333 197.099 83.3333 195.833V170.833C83.3333 168.53 81.4697 166.666 79.1667 166.666H70.8333C60.9578 166.666 52.1403 154.484 45.0521 144.698C44.3522 143.729 43.6605 142.777 42.9769 141.846C45.8862 143.209 48.7264 144.633 51.0864 145.817C57.9224 149.243 64.3799 152.482 69.6615 153.996C69.8934 154.073 70.1782 154.211 70.4956 154.354C72.5301 155.269 76.3102 156.97 79.6997 154.765C83.3333 152.413 83.3333 147.461 83.3333 145.833V142.928C83.3333 141.064 82.0964 139.429 80.3019 138.92C57.194 132.373 41.6667 115.059 41.6667 95.8332C41.6667 85.8356 45.7723 76.2897 53.5441 68.2331C54.7404 66.992 55.0496 65.1488 54.3254 63.5863C51.2248 56.9009 51.8799 47.8066 55.5623 42.346C60.4248 44.2422 66.7318 48.2176 70.8293 53.0841C71.9564 54.4188 73.8078 54.9193 75.4476 54.313C91.0726 48.5838 108.927 48.5838 124.552 54.313C126.208 54.9274 128.052 54.4228 129.171 53.0841C133.268 48.2176 139.575 44.2422 144.438 42.346C148.12 47.8066 148.775 56.9009 145.675 63.5863C144.95 65.1488 145.26 66.992 146.456 68.2331C154.228 76.2897 158.333 85.8356 158.333 95.8332C158.333 116.015 141.085 134.09 116.39 139.783C115.129 140.076 114.075 140.934 113.538 142.11C113 143.286 113.037 144.645 113.643 145.788C115.706 149.695 116.667 155.005 116.667 162.5V195.833C116.667 197.099 117.24 198.291 118.225 199.084C118.974 199.682 119.893 200 120.833 200C121.134 200 121.436 199.967 121.737 199.902C167.086 189.835 200 147.819 200 99.9998C200 44.8607 155.139 -0.000167847 100 -0.000167847Z" fill="black"/>
<path d="M80.3019 141.003C82.0963 141.512 83.3333 143.147 83.3333 145.011V142.928C83.3333 141.064 82.0963 139.428 80.3019 138.92C57.6238 132.494 42.3365 115.686 41.7725 96.8892C41.7628 97.2351 41.6667 97.5693 41.6667 97.9162C41.6667 117.142 57.194 134.456 80.3019 141.003Z" fill="black"/>
<path opacity="0.2" d="M116.39 141.866C141.085 136.173 158.333 118.098 158.333 97.9162C158.333 97.5596 158.235 97.2158 158.224 96.8603C157.643 116.62 140.659 134.188 116.39 139.782C115.129 140.075 114.075 140.934 113.538 142.11C113.136 142.989 113.162 143.949 113.401 144.867C113.461 144.644 113.44 144.407 113.538 144.193C114.075 143.017 115.129 142.159 116.39 141.866Z" fill="black"/>
<path d="M100 -0.00050354C44.8608 -0.00050354 0 44.8603 0 99.9995C0 100.379 0.0442508 100.75 0.0483192 101.128C0.568136 46.432 45.1828 2.08283 100 2.08283C154.817 2.08283 199.432 46.432 199.952 101.128C199.956 100.75 200 100.379 200 99.9995C200 44.8603 155.139 -0.00050354 100 -0.00050354Z" fill="black"/>
<path opacity="0.1" d="M78.2633 199.902C79.4922 200.175 80.7861 199.874 81.7749 199.084C82.7596 198.291 83.3333 197.099 83.3333 195.833V193.75C83.3333 195.015 82.7596 196.208 81.7749 197.001C80.7861 197.79 79.4922 198.091 78.2633 197.819C33.2738 187.832 0.565084 146.392 0.0483192 99.0451C0.0452675 99.3666 0 99.6779 0 99.9998C0 147.819 32.9142 189.835 78.2633 199.902Z" fill="black"/>
<path opacity="0.1" d="M121.737 197.819C121.436 197.884 121.134 197.916 120.833 197.916C119.893 197.916 118.974 197.599 118.225 197.001C117.24 196.208 116.667 195.015 116.667 193.75V195.833C116.667 197.099 117.24 198.291 118.225 199.084C118.974 199.682 119.893 200 120.833 200C121.134 200 121.436 199.967 121.737 199.902C167.086 189.835 200 147.819 200 99.9998C200 99.6779 199.955 99.3666 199.952 99.0451C199.435 146.392 166.726 187.832 121.737 197.819Z" fill="black"/>
<path opacity="0.1" d="M144.438 40.2869C139.575 42.183 133.268 46.1584 129.171 51.025C128.052 52.3637 126.209 52.8682 124.552 52.2538C108.927 46.5247 91.0726 46.5247 75.4476 52.2538C73.8078 52.8601 71.9564 52.3596 70.8293 51.025C66.7318 46.1584 60.4248 42.183 55.5623 40.2869C53.4602 43.4042 52.4765 47.7047 52.4831 52.0666C52.7781 48.4493 53.7989 44.985 55.5623 42.3702C60.4248 44.2664 66.7318 48.2418 70.8293 53.1083C71.9564 54.4429 73.8078 54.9434 75.4476 54.3372C91.0726 48.608 108.927 48.608 124.552 54.3372C126.209 54.9516 128.052 54.447 129.171 53.1083C133.268 48.2418 139.575 44.2664 144.438 42.3702C146.201 44.985 147.222 48.4493 147.517 52.0666C147.524 47.7047 146.54 43.4042 144.438 40.2869Z" fill="black"/>
<path d="M100 -0.000167847C44.8608 -0.000167847 0 44.8607 0 99.9998C0 147.819 32.9142 189.835 78.2633 199.902C79.4922 200.175 80.7861 199.874 81.7749 199.084C82.7596 198.291 83.3333 197.099 83.3333 195.833V170.833C83.3333 168.53 81.4697 166.666 79.1667 166.666H70.8333C60.9578 166.666 52.1403 154.484 45.0521 144.698C44.3522 143.729 43.6605 142.777 42.9769 141.846C45.8862 143.209 48.7264 144.633 51.0864 145.817C57.9224 149.243 64.3799 152.482 69.6615 153.996C69.8934 154.073 70.1782 154.211 70.4956 154.354C72.5301 155.269 76.3102 156.97 79.6997 154.765C83.3333 152.413 83.3333 147.461 83.3333 145.833V142.928C83.3333 141.064 82.0964 139.429 80.3019 138.92C57.194 132.373 41.6667 115.059 41.6667 95.8332C41.6667 85.8356 45.7723 76.2897 53.5441 68.2331C54.7404 66.992 55.0496 65.1488 54.3254 63.5863C51.2248 56.9009 51.8799 47.8066 55.5623 42.346C60.4248 44.2422 66.7318 48.2176 70.8293 53.0841C71.9564 54.4188 73.8078 54.9193 75.4476 54.313C91.0726 48.5838 108.927 48.5838 124.552 54.313C126.208 54.9274 128.052 54.4228 129.171 53.0841C133.268 48.2176 139.575 44.2422 144.438 42.346C148.12 47.8066 148.775 56.9009 145.675 63.5863C144.95 65.1488 145.26 66.992 146.456 68.2331C154.228 76.2897 158.333 85.8356 158.333 95.8332C158.333 116.015 141.085 134.09 116.39 139.783C115.129 140.076 114.075 140.934 113.538 142.11C113 143.286 113.037 144.645 113.643 145.788C115.706 149.695 116.667 155.005 116.667 162.5V195.833C116.667 197.099 117.24 198.291 118.225 199.084C118.974 199.682 119.893 200 120.833 200C121.134 200 121.436 199.967 121.737 199.902C167.086 189.835 200 147.819 200 99.9998C200 44.8607 155.139 -0.000167847 100 -0.000167847Z" fill="black"/>
</g>
<defs>
<clipPath id="clip0_3_2">
<rect width="200" height="200" fill="white"/>
</clipPath>
</defs>
</svg>
