<svg width="200" height="200" viewBox="0 0 200 200" fill="none" xmlns="http://www.w3.org/2000/svg">
<path d="M100 0C44.775 0 0 44.775 0 100C0 155.225 44.775 200 100 200C155.225 200 200 155.225 200 100C200 44.775 155.225 0 100 0ZM75.6917 134.025C56.875 134.025 41.6667 118.817 41.6667 100C41.6667 81.1833 56.875 65.975 75.6917 65.975C84.8833 65.975 92.5583 69.325 98.4833 74.8667L89.2583 83.7667C86.725 81.3333 82.3083 78.5167 75.6917 78.5167C64.075 78.5167 54.6 88.1417 54.6 100.008C54.6 111.875 64.0833 121.5 75.6917 121.5C89.1583 121.5 94.225 111.817 94.9917 106.817H75.6917V95.15H107.817C108.117 96.85 108.35 98.55 108.35 100.792C108.358 120.225 95.325 134.025 75.6917 134.025V134.025ZM158.333 104.858H143.75V119.442H134.025V104.858H119.442V95.1417H134.025V80.5583H143.75V95.1417H158.333V104.858Z" fill="black"/>
</svg>
